<?xml version='1.0' encoding='utf-8'?>
<svg xmlns="http://www.w3.org/2000/svg" width="210mm" height="210mm" clip-rule="evenodd" fill-rule="evenodd" image-rendering="optimizeQuality" shape-rendering="geometricPrecision" text-rendering="geometricPrecision" version="1.1" viewBox="0 0 21000 21000">
 <defs>
  <style type="text/css">
   
    .str0 {stroke:#FECC00;stroke-width:20}
    .fil4 {fill:none}
    .fil1 {fill:#2B2A29}
    .fil0 {fill:#FECC00}
    .fil3 {fill:black}
    .fil2 {fill:#2B2A29;fill-rule:nonzero}
   
  </style>
 </defs>
   <rect class="fil0" transform="matrix(1.3102 1.3102 -1.3102 1.3102 10500 -384.86)" width="8308" height="8308" rx="500" ry="500"/>
   <path class="fil1" d="m11066 1466l8468 8468c311 311 310 822 0 1132l-8468 8468c-310 310-821 311-1132 0l-8468-8468c-311-311-311-821 0-1132l8468-8468c311-311 821-311 1132 0zm50-590l9008 9008c339 339 339 893 0 1232l-9008 9008c-339 339-893 339-1232 0l-9008-9008c-339-339-339-893 0-1232l9008-9008c339-339 893-339 1232 0z"/>
   <path class="fil2" d="m7066 7154l-349-1482h309l220 1018 270-1018h357l259 1035 225-1035h301l-357 1482h-320l-292-1108-294 1108h-329zm3042 0h-323l-128-338h-594l-123 338h-317l575-1482h317l593 1482zm-548-588l-206-548-200 548h406zm960 588v-1231h-438v-251h1175v251h-437v1231h-300zm1951-547l290 89c-45 163-119 284-222 364-104 79-235 118-394 118-197 0-358-67-485-201-127-135-190-319-190-552 0-247 64-438 191-575 127-136 295-205 502-205 182 0 329 54 442 161 68 64 118 155 152 274l-296 70c-18-76-54-137-110-182-56-44-123-66-203-66-110 0-199 39-267 118-69 79-103 206-103 383 0 187 34 320 101 400 68 79 155 119 263 119 80 0 149-25 206-76s98-130 123-239zm620 547v-1482h300v584h583v-584h300v1482h-300v-648h-583v648h-300zm-4624 2311v-1481h1018v250h-718v352h621v250h-621v629h-300zm1275-732c0-151 22-278 67-380 34-76 80-144 138-204 59-60 122-104 192-134 92-39 199-58 319-58 219 0 394 68 525 203 131 136 196 325 196 566 0 240-65 428-195 563s-304 203-521 203c-221 0-396-67-526-202s-195-320-195-557zm308-10c0 168 39 295 116 382 78 87 177 130 296 130 120 0 217-43 294-129s115-215 115-387c0-170-37-297-112-380-74-84-173-126-297-126s-223 43-299 127c-75 85-113 213-113 383zm1436 742v-1481h630c158 0 273 13 345 40 72 26 129 73 172 141 43 69 65 146 65 234 0 111-32 203-97 275-66 73-163 118-293 137 65 38 118 79 160 124 42 46 98 126 169 241l181 289h-357l-215-323c-77-115-130-188-158-218-28-29-58-50-90-61s-83-17-152-17h-60v619h-300zm300-854h221c144 0 233-7 269-19 35-12 64-33 84-63 20-29 30-66 30-111 0-50-14-90-40-121-27-31-64-50-113-58-24-3-97-5-218-5h-233v377z"/>
    <path class="fil3" d="m9167 12020c-108 204-137 401-167 632-8 63-9 118-22 178-16 75-37 159-69 231-87 192-132 228-21 449 17 33 29 59 46 92 37 73 92 143 147 202 46 50 119 140 173 177-194 288-256 476-256 861 0 106 29 201 65 291 12 30 22 58 35 84 26 53 53 106 82 156 7 13 93 144 93 144 0 113-212 362-212 618 0 147 69 246 150 355 53 71 149 143 156 151l-61 77c-21 28-39 57-58 85-13 20-134 230-44 238 1 33 8 34 37 36 55 3 5 48 149-32 37-21 67-38 101-61 88-62 171-121 252-191 53-46 108-20 176-31 51-7 107 0 160-2 32-1 38-7 74-7 217 0 252-29 371-34 170-6 684 141 829 141-15 64-157 281-50 312l19 6c24 13 0 14 37 19 12 1 17-1 29 2 23 5 8 10 21 10 53 0 175-87 216-114 65-43 128-95 182-149 29-29 53-53 81-82 26-25 57-69 85-84 40-21 69-33 105-56 100-63 185-158 243-258 41-72 75-139 114-216 63-126 154-388 123-533 43-4 371-132 449-157 26-9 48-9 57-31 8-20-23-65-29-83-28-70-93-200-108-266 61-33 480-195 480-213 0-53-139-464-162-562 28-2 45-13 71-22 27-10 43-15 69-25 28-11 410-138 410-153 0-54-37-126-52-179l-138-455c-5-16-9-26-14-42-6-18-9-35-15-48 16-8 74-22 97-28 233-58 462-137 688-212l476-160c81-27 209-68 275-112-8-100-193-475-256-600l-281-574c-18-36-73-135-81-169-40 0-73 20-106 38l-417 233-1384 894c-85 57-62 40 39 192l578 870c19 29 89 124 91 153-42 3-414 155-482 180-102 38-87-5 50 339 21 52 40 98 61 152 13 33 56 124 59 153-30 7-324 164-356 181 4 55 156 314 175 394-58 27-203 106-256 118l-38-218c-35-212-97-414-144-624l-48-208c-53-211-91-424-127-641-36-215-75-450-98-671l-25-231c-45-411-55-435-189-773-6-16-11-35-18-50 94 0 529-144 598-170l270-117c106-54 208-110 306-175 19-13 37-23 57-36 260-174 367-264 575-487 26-28 141-142 118-165-15-15-311 14-357 14-58-1-301 12-352 22-227 41-418 91-621 154-301 94-686 296-957 485-89 63-21 59-254-33-68-26-133-47-206-68-408-113-875-91-1269 40l-165 59c-18 8-40 19-60 21-8-30-44-57-64-80-11-12-11-15-22-28-120-135-259-287-397-402-109-91-220-182-336-264l-365-234c-85-50-177-94-268-132-104-43-342-159-441-159-38 0-5 44 2 61l98 201c44 88 100 172 150 256 25 41 54 81 81 119l323 377c0 1 2 3 3 3 72 70 155 155 234 216l80 70c203 159 260 197 478 327 18 11 47 32 69 38z"/>
     <path class="fil0" d="m11001 12548c-69 16-114 54-139 106-116 239 111 431 295 376 210-64 221-343 51-448-52-32-139-50-207-34z"/>
     <path class="fil0" d="m9415 12522c-238 36-252 473 13 464 126-4 173-116 178-242 5-131-52-243-191-222z"/>
    <path class="fil4 str0" d="m9782 13329c31 29 58 63 92 88 9 6 22 3 33 0 53-19 103-46 156-65 18-6 38-15 55-9 80 26 152 75 231 104 13 4 28 0 41-5 46-17 89-41 134-62"/>
    <path class="fil0" d="m10066 13119c-47-14-67-37-81-63 56-2 111-4 166-6-28 23-57 46-85 69z"/>
   <path class="fil3" d="m14468 9177l2 5c0 1 1 2 1 3 1 4 1 7 2 11 10 59 23 102 52 155 55 98 60 91 149 166 18 15 33 29 54 39l29 15c32 16 79 19 113 4 61-27 35-7 125 29 82 34 114 44 208 64 52 10 105 12 168 12-5 20-20 29-33 43-14 14-21 24-34 38-28 27-72 88-101 123l-47 61c-6 8-8 13-14 22l-56 91c-9 18-15 30-25 47-29 47-10 43-47 81-4 3-4 4-8 8-19 19-5-2-38 38-6 8-9 13-16 20-7 8-10 10-17 19-17 24-40 62-44 100 27 12 50 5 80 12 12 49-5 123 28 132 0 28-8 51-8 79-1 83 2 141 33 219 27 67 70 128 120 180 14 14 7 9 15 25-32 21-39 15-69 27-88 33-160 41-214 61-14 6-27 12-42 18-22 10-25 3-35 26-8 18-18 83-11 103 21 65 31 41 50 70 8 13 18 25 27 37 10 12 21 18 34 26 53 36 31 35 59 60 55 49 96 72 169 43l131-52c14-5 27-13 41-19 31-13 57-24 89-35 30-10 59-20 88-32 18-7 29-10 49-15l232-72c85-28 84-28 140-75 7-7 8-8 13-15 28-45 25-40 32-89 2-14 0-14 13-13l80 13c99 16 133 4 185 58 35 35 66 55 101 83 51 39 70 8 48 115-7 33-15 69-24 100l-31 89c-14 40-9 66-1 108 3 17 9 31 16 43 30 49 193 39 240 8 14 19 55 25 68 36h108l26-6c40-6 42-6 79-21 27-10 14 3 43 7 24 3 36-4 59-4 40 0 77-10 104-25 47-26 34-25 41-86 5-49-2-64-25-96-66-88-44-69-98-158-23-39-16-43-28-68-5-10-7-10-9-22 9-15 11-9 23-25l56-95c29 0 374-49 391-53 142-34 387-76 489-178 18-18 18-14 26-34l4-8c0-1 1-2 1-3v-48c-19-13-16-24-41-38-42-23-101-29-146-46-13-5-12-8-25-12 6-72 12-132 4-207l-12-156c-2-15-8-29-12-44-35 0-33 3-58 13-57 22-181 94-230 130-21 16-61 55-83 61-8-6-9-9-18-15-7-5-12-6-20-12-34-22-65-55-92-87l-5-7c-1 0-2-1-2-2l-75-100c-8-11-17-27-20-41 18-5 61-57 74-74 21-29 44-50 64-80 20-31 45-52 63-84l58-86c15-20 15-27 26-50 17-37 84-111 28-143-21-12-57-23-82-29-31-8-124-29-151-29l58-42c22-15 38-28 58-42l55-45c24-17 34-21 55-45 18-19 50-39 76-67l70-87c21-28 35-79 5-109l-119-81c-6-3-10-4-16-8l-88-35c-15-6-20-10-36-16-14-5-23-8-35-13-36-16-102-30-151-49l-80-20c5-18 49-51 62-66 1-1 1-2 2-3l4-4c3-3 4-5 7-8 14-14 24-24 40-37 28-21 51-50 76-75 78-77 43-131-31-187-15-11-28-20-43-32-50-40-130-88-187-117-19-9-34-14-51-25l-103-52c-49-20-42-50-62-91l-81-146c-5-8-11-16-16-24l-76-116c-11-14-20-28-31-45l-72-79c-6-6-15-12-23-18-6-6-4-4-10-9-30-29-71-44-109-59l-59-18h-123l-18 7c-9 2-12 3-19 5-11 3-23 9-34 14-14 6-17 11-32 16l-118 25c-77 18-68 26-105 39-68 25-34 4-107-9-41-7-40-10-83-5-49 5-118 12-156 35-26 16-64 37-88 56-10 8-18 13-26 22-7 8-4 6-11 13l-32 40c-7 12-11 19-19 29l-18 30c-30 45-55 116-73 167l-32 108c-7 25-11 51-18 78-31 128-35 90-106 161-1 0-2 1-2 2-27 26-96 62-131 77l-104 39c-32 11-79 26-113 32-38 6-44 5-70 25-27 19-30 19-50 46-8 10-13 18-20 28l-49 95c-25 59-20 52-30 114l-4 32c0 1-1 3-1 3 0-1 0 2-1 3v56z"/>
   <path class="fil3" d="m5077 12799h134c1 0 3-2 3-1 1 1 3-1 3-1 66-22 107-8 242-68 42-19 70-33 107-56 51-32 37-8 135-8 0 34-23 54 2 87 32 44 111 41 151 6 21-19 30-38 37-70 1 1 1 2 1 4l11 35c42 81 194 66 209-3 5-25-4-26-8-45 16 0 45-2 59 2 8 2 9 4 23 9 8 4 15 6 24 8 32 10 66 18 98 27 55 13 157 29 231 19 32-5 54-31 68-57 8-16 12-28 6-44-7-21-18-22-37-28-56-17-152-33-222-33 47-71 65-56 87-167 10-45 22-46 53-77 35-35 58-70 83-111 8-15 15-28 22-43 17-34 38-88 32-129-6-51-15 7 4-76 4-16 9-40 10-54 4-46-25-64-63-40-28 18-65 53-102 78-47 31-109 70-163 82-26-17-48-46-73-66-108-90-52-38-83-194-8-41-14-77-22-117l-27-112c-24-102-20-218-5-318 3-26-1-41 16-53 14 60 133 221 174 264 9 10 9 12 17 21 34 42 99 46 155 48 67 2 49-12 113 17 19 8 222 87 212 41-8-34-38-67-54-97-18-32-32-289-73-321-26-20-81-41-113-53l-41-15c-16-5-29-8-43-12l-47-14c14-1 32-6 43-8 18-3 26-4 43-7 32-7 58-11 88-19 137-34 371-120 493-183 54-28 144-80 188-122 11-9 18-17 28-27 63-64 60-67 135-124 28-22 69-47 79-83-130 30-264-16-375-75 0-25 7-48 12-71 15-76 25-144 25-225 70-16 241-113 301-157 47-34 89-74 134-111l8-6c7-7 7-6 13-14l82-95c113-142 229-374 248-561l13-98c0-1 1-2 2-3v-93c-15 10-30 22-45 34-17 13-26 17-46 28-17 10-34 16-53 21-24 6-34 11-59 16-49 9-219 26-274 26l45-85c4-9 8-14 11-21 5-8 6-13 10-23 5-13 14-32 17-47-26 1-90 21-120 28 11-22 23-57 32-79 28-78 58-167 78-246 8-30 14-57 21-90 22-101 20-154 30-244 2-19-4-25-4-44-37 0-83 12-116 17-153 26-362 100-501 171-18 9-29 13-47 21s-25 15-42 24l-208 129c-71 47-234 179-295 243-54 57-107 115-151 181l-241-32c-33-2-48 4-83 4-4-18-23-43-33-59-82-129-124-198-223-319l-60-74-340-331c-16-14-34-27-51-41l-232-176c-8-6-15-10-24-17l-168-105c-96-59-196-106-303-146l-130-46h-18c-3 29-18 73-25 105-31 134-67 424-68 557 0 26-5 32-5 60v125c0 27 3 36 5 56-73 0-160-33-218-51l-98-36c-161-63-101-44-230-108-40-19-87-49-122-76-26-20-45-43-72-58 0 27 8 64 13 89 10 52 24 110 45 158 18 40 5 94 13 135 14 76 51 213 73 279 24 73 52 149 89 217 40 75 88 143 139 212l116 134c9 11 16 16 26 25 115 112 239 194 376 276 20 12 48 26 68 34 25 10 45 20 71 31l144 54c28 13 90 102 124 131 22 18 64 49 77 67-234 0-475-112-676-218 23 99 156 270 236 334l67 53c9 7 17 10 25 17 14 10 58 89 119 140l35 30c15 12 26 22 43 35l92 70c16 13 32 23 48 35 17 13 30 21 47 32 98 67 198 128 305 181 37 19 70 35 110 52 21 8 38 17 58 25 91 41 190 64 283 97 1 0 3 1 3 1l10 4c-18 0-66 4-85 7-28 5-54 8-78 15-41 11-110 24-138 43-43 28-121 197-125 241-17-5-23-21-35-34-44-47-86-97-137-136l-117-82c-59-36-115-65-185-88-141-46-283-79-422-120l-93-41c-88-54-152-109-189-214-18-52-57-155-57-211h-9c0 23 0 15-6 31l-24 78c-12 37-20 70-32 107l-74 204c-36 102-76 199-119 297-58 133-115 266-146 409-8 39-17 80-24 115-37 197-38 423 50 596 23 46 49 87 80 128 88 119 213 216 347 278 32 14 65 29 99 40 69 23 142 47 220 58 149 21 361-12 492-80l22-11c69-35 78-54 119-84 16 24 66 62 92 69-7 11-17 13-29 21-39 25-153 119-62 149 14 4 26 4 36 10z"/>
</svg>